<svg width="1080" height="1080" viewBox="0 0 1080 1080" fill="none" xmlns="http://www.w3.org/2000/svg">
<rect width="1080" height="1080" rx="240" fill="#37137F"/>
<g filter="url(#filter0_d_2114_475)">
<path fill-rule="evenodd" clip-rule="evenodd" d="M448.816 365.19C446.753 365.19 448.181 365.051 447.705 364.773C447.705 364.773 446.912 364.078 446.753 364.078C446.119 363.522 445.484 363.244 445.167 362.688C445.008 359.492 444.215 360.604 442.311 359.214C441.835 358.797 441.359 358.103 440.724 357.547L438.027 355.879C434.695 353.795 435.012 352.544 432.632 351.155L428.983 348.931C427.714 347.959 427.396 346.986 426.127 345.874C425.016 345.04 423.906 344.485 422.636 343.373L416.924 339.343C415.655 338.509 412.799 337.398 412.164 336.564L407.563 332.256C406.928 331.839 406.294 331.422 405.818 331.006C404.39 329.755 400.264 328.087 397.408 326.142L396.456 325.447C392.331 322.529 392.331 323.78 387.889 319.75C386.778 318.638 383.287 317.665 381.701 316.832L378.527 314.747C378.369 314.747 378.369 314.608 378.21 314.608C376.941 313.775 375.195 313.358 373.767 312.663C373.133 312.107 373.45 312.385 372.974 311.968C368.373 308.911 369.166 311.273 365.834 308.355C365.834 308.216 365.675 308.216 365.675 308.077L364.565 307.243C362.819 305.993 361.867 306.271 360.598 305.437C359.329 304.742 360.439 304.881 358.853 304.186C356.79 303.075 353.617 302.519 351.871 301.407L350.285 300.712C348.539 300.017 348.857 300.156 347.587 298.906L345.049 297.238C343.145 295.849 341.241 296.405 338.068 294.181L333.625 291.819C331.721 290.985 329.976 290.846 327.754 290.707C326.961 289.596 328.23 290.429 326.961 289.318L324.898 288.067C324.264 287.65 323.946 287.233 323.153 286.677C321.884 285.566 323.47 286.26 321.09 285.566C317.6 284.732 316.172 284.732 313.633 283.342C310.142 281.119 310.142 281.953 306.334 280.841C304.906 280.424 303.32 279.729 301.574 279.174C296.973 277.645 296.973 276.95 291.261 276.811L289.675 275.005C289.675 274.866 289.516 274.866 289.516 274.727C289.516 274.727 289.357 274.727 289.357 274.588L286.184 273.615C286.184 273.615 286.025 273.476 285.867 273.476L284.597 273.198C282.217 272.781 282.376 272.087 279.52 272.087L278.251 270.002C275.236 270.002 271.904 269.863 270 271.809C271.428 272.087 270.476 271.809 271.745 272.503C273.808 273.615 273.332 274.171 276.505 274.31C277.616 276.672 276.029 275.561 279.52 276.394C281.424 276.811 279.996 276.533 281.424 277.228L282.852 277.784C285.232 278.896 284.756 278.201 287.136 278.757L291.579 279.312L292.372 281.397C296.338 281.536 296.497 282.092 299.512 283.203L308.714 287.65C308.714 287.65 308.873 287.789 309.032 287.789C310.777 288.623 313.157 288.762 314.902 289.318C316.489 289.873 318.393 289.873 320.138 290.429C321.884 291.124 320.932 290.985 322.201 292.097L325.057 292.236C325.374 292.931 325.057 293.069 325.533 293.764L330.61 297.099C332.038 298.35 332.514 298.072 334.894 298.906C336.005 299.323 337.116 299.462 338.385 299.879C339.337 300.017 340.924 300.156 341.717 300.573L344.097 302.102C344.89 302.797 344.731 303.908 345.525 304.603C346.477 305.298 347.587 305.298 348.539 305.854L348.698 305.993C348.857 306.132 348.857 306.132 349.015 306.271C349.015 306.271 349.174 306.271 349.174 306.41C350.443 307.104 350.761 306.965 351.871 307.66L354.569 309.05C355.679 309.467 355.997 310.301 357.425 310.995L359.329 311.829C359.805 312.107 360.598 312.524 361.233 312.663C362.343 313.08 362.978 312.941 363.93 313.636C365.517 314.608 366.469 315.72 368.055 316.554C369.166 316.971 368.69 316.693 369.801 317.387C371.863 318.777 370.118 318.638 373.45 318.777C374.402 321.417 375.354 321.556 378.845 322.668C383.763 324.196 379.162 323.919 383.287 326.003C384.874 326.698 383.922 326.003 384.715 327.254C385.826 328.782 387.571 329.06 388.999 330.45L398.043 336.842C399.947 338.787 402.644 338.648 404.39 340.316C405.342 341.289 404.548 340.733 405.818 341.705C406.294 341.983 406.77 342.4 407.246 342.678C409.467 343.929 409.626 344.763 411.53 346.152L421.208 353.934C423.271 355.74 425.968 357.547 427.872 359.77C431.046 363.383 430.57 361.577 434.854 365.329C435.964 366.301 436.44 366.857 437.392 367.83L439.455 369.775C439.455 369.914 439.455 369.914 439.614 370.053L442.469 373.666C442.628 373.666 442.628 373.805 442.628 373.944L443.263 374.778C443.739 375.195 444.215 375.473 444.691 375.751L448.657 379.364C450.244 381.309 451.355 381.031 453.1 383.393L455.004 386.173C455.639 386.867 455.004 386.173 455.48 386.867C455.639 387.006 455.956 387.423 455.956 387.562C457.384 389.369 457.384 387.84 458.971 389.647L462.144 392.982C463.413 394.788 463.731 396.456 466.587 396.872C466.745 398.401 467.063 399.235 468.173 400.346C468.173 400.346 468.173 400.485 468.332 400.485L470.077 402.153C470.077 402.292 470.236 402.292 470.236 402.431L470.553 403.126C470.712 403.543 470.871 403.82 471.029 404.237C471.664 405.905 472.299 407.294 473.727 408.545L477.217 412.714C478.328 414.798 478.963 417.855 480.391 419.523C480.549 419.662 480.867 420.218 481.025 420.357L481.343 420.913C481.501 420.913 481.501 421.051 481.66 421.051C483.088 422.858 483.564 422.58 484.516 425.081C486.42 431.057 487.531 427.166 489.117 433.558C489.434 435.225 490.069 435.364 491.021 436.615C491.18 436.615 491.18 436.754 491.18 436.754L491.656 437.449C492.29 438.56 492.449 440.923 493.56 442.034C495.464 444.397 492.766 440.923 494.036 442.729C494.194 442.729 494.194 442.868 494.194 442.868L494.829 444.258C495.146 445.092 495.146 445.786 495.464 446.62C495.622 447.176 495.94 447.454 496.098 447.871C496.892 449.26 496.098 448.843 497.526 451.067L498.32 452.178C499.113 453.29 499.272 454.124 499.589 455.514C500.065 456.903 500.224 456.347 501.334 460.238L503.238 464.824C503.556 466.213 503.397 467.464 504.032 468.854L506.094 473.161C506.253 473.439 506.253 473.161 506.729 474.273C507.364 476.218 506.888 479.554 507.998 481.499L511.806 491.782C512.124 494.005 512.124 491.365 512.441 494.005C512.758 495.951 512.6 497.201 513.076 498.869C513.076 499.008 513.234 499.147 513.234 499.286L513.869 505.4C513.869 507.762 514.662 508.596 514.98 510.541C515.297 512.348 515.456 514.571 515.456 516.378C515.456 520.686 517.042 525.41 515.297 529.857C515.138 529.857 515.138 529.996 515.138 530.135L514.821 530.83C514.345 532.358 514.186 533.053 512.917 534.026C512.917 534.165 512.758 534.165 512.758 534.304C508.95 537.5 508.474 540.279 502.762 542.502L502.286 543.336C502.128 545.559 500.541 547.644 498.478 549.033C496.574 550.423 494.036 553.897 493.084 554.731L490.704 556.676C490.545 556.676 490.545 556.815 490.386 556.815L484.833 562.512C483.564 563.624 482.929 563.763 482.136 565.292C480.549 568.627 481.025 568.071 478.169 570.711C477.535 571.267 477.217 571.684 476.741 572.379C474.837 574.741 473.409 574.463 472.299 575.714C472.14 575.714 472.14 575.853 471.981 575.853C470.871 577.242 469.76 579.049 468.332 580.021C466.428 580.994 465.952 582.801 464.365 584.19L463.413 584.746C462.144 585.858 461.827 587.108 460.399 588.081C459.764 588.637 458.971 589.054 458.495 589.61L457.86 590.86C456.273 593.223 454.211 595.585 452.148 597.669C450.879 599.059 449.451 600.032 448.499 601.699C447.705 603.089 448.34 602.533 447.071 603.506C446.912 603.784 446.595 603.922 446.277 604.2L442.945 607.258C442.945 607.258 442.945 607.396 442.787 607.396L439.455 611.843C438.503 612.955 438.979 612.399 438.344 613.65L435.806 616.012C431.998 618.374 435.012 618.374 431.046 622.404C429.618 624.072 428.348 624.627 427.714 625.6C427.396 626.434 427.079 627.129 426.762 627.685C425.81 629.213 424.858 629.213 423.906 631.576L422.319 634.494C422.16 634.494 421.843 634.772 421.843 634.772L418.194 640.052C417.083 641.442 416.29 644.082 415.338 644.916C413.751 646.166 414.703 644.638 413.592 646.583L410.26 652.003C409.626 653.114 409.626 653.809 409.626 655.06C407.88 656.31 408.198 655.893 407.246 657.839C406.294 659.923 405.5 662.425 404.231 664.37C404.072 664.37 404.072 664.509 404.072 664.648L403.596 665.204C403.438 665.343 403.438 665.343 403.438 665.482L400.74 669.373L400.582 669.511C399.154 672.43 398.519 675.487 397.408 678.544C396.932 679.933 396.932 682.296 396.139 683.685L393.918 689.383C393.283 691.606 393.918 692.301 392.649 695.219C390.903 699.11 389.793 721.621 391.22 726.485C391.696 728.292 391.855 731.627 392.49 733.016L393.6 734.684C394.235 736.629 393.918 737.185 395.663 740.103C395.822 740.103 395.822 740.242 395.822 740.381L396.456 740.937C397.25 741.771 396.456 741.354 397.726 741.771C400.264 742.465 398.043 741.771 399.312 743.16C399.788 743.716 399.312 743.299 400.264 743.855C401.216 744.411 400.106 743.438 401.216 744.411C402.168 745.106 401.692 745.106 402.486 746.078L404.39 747.746C406.294 749.552 404.707 749.413 408.039 750.525C411.371 751.776 408.674 752.054 412.164 753.165C413.116 753.443 413.592 753.443 414.386 754.138C415.496 755.25 414.227 754.972 415.972 755.667C418.035 756.5 420.098 756.361 422.319 757.056L427.872 759.141C433.584 761.364 443.897 760.808 449.451 758.863C451.989 758.029 451.196 758.863 453.417 757.612C453.576 757.612 453.735 757.334 453.893 757.334C454.052 757.334 454.052 757.195 454.211 757.195C459.764 754.416 456.908 755.111 461.668 752.748C465.635 750.803 462.62 750.803 465.159 749.691L466.587 749.135C466.745 749.135 466.745 748.997 466.904 748.997C469.443 747.607 468.491 746.773 472.14 746.217C472.457 744.411 472.775 743.994 474.044 743.021C480.549 738.019 479.597 737.602 481.501 736.073C484.04 733.989 483.564 731.766 485.309 730.237C487.848 728.153 486.261 728.986 487.372 727.18C488.006 725.929 488.483 726.902 488.958 723.567C489.91 723.15 489.276 722.733 490.228 721.483C491.338 719.954 491.497 721.066 491.656 718.564L493.56 718.147C493.718 716.48 494.194 716.758 494.036 715.507C493.877 713.423 494.194 712.45 495.305 710.783L498.478 706.614C499.272 704.39 498.478 702.306 500.541 700.777C504.984 697.72 503.556 694.941 504.825 691.189C505.301 689.522 505.777 688.41 507.364 687.298C509.109 686.326 508.792 685.77 509.585 684.241C510.854 682.018 510.854 678.405 511.013 675.487C511.013 675.487 510.061 675.765 511.965 675.765C514.345 675.626 513.71 674.514 514.504 673.124L516.09 669.928C516.408 668.956 516.249 668.678 516.408 667.566C516.725 665.482 516.566 667.983 517.042 665.76C517.36 664.509 517.201 662.147 517.201 660.896C517.518 661.452 517.994 662.425 518.312 661.452C518.47 661.452 518.47 661.313 518.47 661.174L520.85 655.616C521.485 654.504 521.009 652.836 521.326 651.586C521.802 649.223 524.5 648.668 524.976 644.916C525.134 643.248 525.769 638.246 526.562 636.856C526.88 636.439 526.562 636.856 527.197 636.161L527.356 636.022L528.149 634.772C529.26 632.409 529.736 623.099 529.894 620.32C532.75 619.625 531.322 620.042 532.116 616.29C532.433 614.9 532.592 614.622 532.75 613.372L533.543 611.982C533.543 610.315 533.226 605.868 533.702 604.339C533.861 603.506 534.337 603.922 535.13 603.089C535.13 601.143 535.13 599.198 535.13 597.252C535.13 592.945 535.924 595.585 536.082 592.111C537.352 591.833 536.876 591.972 537.669 591.138C536.558 590.443 536.876 590.721 536.876 588.915C536.876 586.414 537.193 584.885 537.986 582.662C539.573 578.632 537.669 584.885 538.462 581.55C539.731 576.547 539.097 569.738 539.097 564.319C539.097 561.957 538.621 560.984 538.621 558.9C538.621 556.815 539.097 555.842 539.097 553.341C539.097 551.396 539.097 549.45 539.097 547.505C538.462 547.922 539.573 547.922 540.366 547.922L540.525 542.363C542.429 541.391 541.635 542.641 542.587 540.279L552.107 529.162C553.059 528.467 554.646 528.189 555.439 527.356L560.517 521.519C560.993 520.825 560.993 520.825 561.31 520.408C561.31 520.408 561.469 520.269 561.469 520.13L563.055 517.906C563.055 517.767 563.055 517.767 563.214 517.628L563.531 517.073C564.007 516.378 563.214 517.073 563.849 516.378L570.354 512.348C572.575 510.403 573.527 510.958 577.653 511.097C578.129 511.792 577.653 511.792 578.129 512.626C579.081 514.432 578.446 512.904 579.239 513.877L580.667 515.822C582.095 517.49 580.509 514.988 581.143 516.378C581.937 520.13 581.143 526.383 581.302 530.691C581.461 533.192 582.095 534.721 582.095 537.639C582.254 541.252 582.095 546.81 582.73 550.284C583.047 552.09 582.889 550.284 583.206 551.674C583.523 552.924 583.206 554.036 583.523 555.148C583.84 557.51 584.158 555.148 584.634 557.788C585.11 560.15 583.365 569.599 586.855 570.989V567.932C587.014 570.155 587.014 572.24 587.49 574.185C587.807 575.436 588.283 575.714 588.759 576.13L590.822 581.967C591.298 584.746 592.091 587.803 592.091 590.721C592.25 590.721 592.408 590.86 592.408 590.86L593.043 591.138C593.519 591.416 593.202 591.138 593.836 591.416V594.751C596.375 595.585 593.519 594.334 594.947 594.751C595.106 596.28 595.106 597.669 595.423 598.92C596.216 601.699 596.375 600.171 596.692 600.171C596.692 601.143 596.534 602.116 596.851 603.089L597.644 604.895C597.962 606.146 598.279 607.674 598.438 609.342C599.231 615.178 600.976 615.595 601.294 617.679L601.77 616.012C602.246 616.985 602.563 618.513 602.88 619.903C603.515 622.821 602.88 621.154 604.467 622.821C606.847 625.183 605.895 626.99 607.164 629.213C608.592 631.437 610.655 633.521 612.4 635.605C612.559 635.744 612.876 636.161 612.876 636.3C613.987 637.69 613.828 639.079 613.828 640.886C613.987 640.886 614.146 640.886 614.146 641.025L617.16 645.749C618.271 647.278 617.954 649.918 619.382 651.03C621.127 652.419 622.396 652.836 623.19 655.06C624.142 657.7 625.252 657.561 625.57 660.34C627.156 660.757 627.791 661.452 629.219 662.008C629.219 663.814 629.06 663.675 629.854 664.926C630.329 666.038 629.854 665.482 630.647 666.176L635.089 672.569L635.407 672.847C636.517 673.958 636.676 674.653 637.469 675.904C638.263 677.015 638.58 676.876 639.532 677.71C640.643 678.683 641.119 680.072 642.229 681.184C644.451 683.408 644.609 685.492 646.196 686.881L649.052 689.244C649.528 689.939 649.687 690.494 650.321 691.05L652.225 691.467C652.543 694.663 653.019 692.579 654.288 694.385C655.399 695.775 654.605 696.47 656.509 697.442C659.524 698.832 657.62 697.026 658.889 699.944C659.683 701.889 660.635 700.5 662.697 703.279C663.332 704.251 663.491 705.502 664.443 706.475C665.553 707.864 666.188 707.309 667.14 708.976C667.933 710.227 666.505 709.115 668.092 710.227C669.203 711.199 666.981 709.393 668.727 710.644L670.472 712.45C671.107 711.616 670.789 711.755 670.948 710.644L672.852 712.728C673.645 713.423 673.804 713.284 674.28 714.534C674.439 714.812 674.439 715.09 674.597 715.368C674.915 716.202 674.439 716.063 675.549 716.48L676.184 716.758L677.295 717.175C677.295 717.314 677.453 717.314 677.453 717.314L679.04 719.259C679.674 720.649 679.992 720.649 681.896 720.788L682.531 722.455C683.007 723.428 684.117 724.123 684.752 724.54L686.656 726.902C687.608 727.875 686.656 727.041 687.925 727.597C690.146 728.708 688.877 729.403 691.257 730.654L692.209 731.21C692.368 731.21 692.368 731.349 692.368 731.349C693.32 732.182 693.637 733.155 695.065 733.85C698.238 746.217 787.567 800.273 805.179 808.055C806.924 808.888 808.194 809.722 809.939 810C810.098 805.97 810.256 804.997 806.131 803.608C793.596 799.161 697.762 735.656 691.892 724.123C690.464 721.344 690.146 722.455 688.718 720.371L688.242 719.676C687.449 718.703 686.497 718.425 685.545 717.592C685.387 717.592 685.228 717.314 685.069 717.314L678.723 710.505C678.564 710.366 677.929 709.671 677.929 709.671L676.343 707.864C674.28 706.197 675.232 705.085 673.645 703.557L672.059 702.445C668.727 700.222 669.361 698.832 667.775 697.303L665.395 695.358C663.332 693.274 663.808 692.996 662.38 691.05C661.904 690.494 662.063 690.633 661.745 690.355C661.111 689.383 660.635 688.549 659.524 687.715L653.812 681.323C653.019 680.35 653.336 679.378 651.591 677.432L648.893 673.819C648.417 672.986 648.576 673.402 647.941 672.569C646.831 671.179 646.355 669.65 645.085 668.122L643.34 666.038C642.071 664.926 642.547 663.119 640.167 660.34L639.215 659.367C635.883 654.921 639.374 657.422 635.724 655.754L633.979 649.918C633.027 647.834 633.027 648.251 631.599 647L630.647 646.027C630.012 646.722 630.329 647.139 629.06 647.139C628.267 645.471 628.584 643.665 628.108 642.136C627.95 641.442 627.791 641.442 627.632 641.025L626.363 637.69C624.142 633.104 625.57 636.578 623.824 633.799C622.714 632.131 623.031 629.491 622.238 627.407C620.968 624.072 620.968 625.739 619.54 619.486C618.906 617.402 618.271 616.151 616.684 614.622C616.208 614.206 616.367 614.344 615.891 614.067L614.304 613.372C614.304 611.426 614.622 609.064 613.987 607.258C613.987 607.118 613.828 607.118 613.828 606.98L612.242 602.533C611.607 601.143 611.607 598.781 611.131 597.252C610.338 595.029 610.179 594.751 610.179 591.833C610.02 588.081 609.862 589.054 608.751 586.691L606.212 570.572H605.578C605.26 565.709 603.991 559.177 604.15 554.036C604.15 553.063 604.467 551.257 603.991 550.701C603.991 550.562 603.674 550.423 603.674 550.284C601.928 547.922 602.087 523.326 603.039 516.795C603.356 514.432 603.356 516.656 603.674 514.571C604.308 510.264 603.356 495.673 605.578 490.392L606.688 485.946C606.847 484.556 607.006 481.916 607.64 480.804C608.116 479.692 608.116 481.36 608.434 478.72C608.592 476.496 609.227 476.218 610.179 474.412C610.814 473.161 610.496 473.439 611.448 472.467L611.607 472.328L615.891 468.02C617.478 465.658 617.319 466.213 618.747 464.685L623.19 461.072C624.935 459.96 624.459 460.516 625.252 459.682C626.204 458.432 626.68 456.903 627.791 455.791C630.012 453.707 628.743 456.069 632.551 451.067C633.503 449.816 636.835 447.176 639.849 443.146C639.849 443.007 639.849 443.007 640.008 442.868L643.023 440.089C645.879 438.283 646.037 438.56 647.624 435.781C648.576 434.531 649.845 433.975 651.115 432.863C651.115 432.724 651.273 432.724 651.273 432.724L656.509 427.722C657.144 426.888 657.144 425.22 657.62 424.387L662.697 420.218C663.332 419.801 663.649 419.523 664.125 418.689C664.76 417.994 665.077 417.577 665.553 417.022C666.981 415.076 668.727 413.409 670.789 411.741C671.265 411.324 671.265 411.324 671.583 410.907C672.217 410.352 672.217 410.074 672.693 409.101C673.328 407.989 673.963 407.711 674.915 406.878C675.867 406.044 674.915 407.294 675.708 406.044C678.723 401.597 679.199 403.126 679.992 401.18L685.704 394.649C687.608 393.676 688.56 391.175 690.146 389.786C691.733 388.535 692.844 386.45 694.43 385.061C694.748 384.783 694.906 384.644 695.065 384.366L695.7 383.393C697.128 381.309 698.238 380.753 699.666 378.391C700.142 377.696 700.46 377.279 700.936 376.584L705.537 370.331C706.648 368.664 706.489 369.081 707.758 368.108L709.186 366.579C710.138 365.607 709.98 366.162 710.456 364.912C711.408 362.827 712.994 361.438 713.788 359.353C713.946 358.797 713.788 358.936 714.264 358.242L715.692 356.852C717.913 355.462 713.946 357.686 716.326 356.574C717.754 356.018 716.961 356.574 717.754 354.49L718.865 352.544C719.817 351.294 719.976 349.348 720.769 348.098L722.356 345.179C722.832 344.207 722.356 345.179 722.832 344.207L725.053 340.177L725.212 340.038C726.481 338.231 727.909 338.092 728.861 336.147L730.289 330.867C730.606 329.616 730.448 330.311 730.765 329.755L731.241 329.199C732.193 327.254 733.145 325.586 733.145 323.502C733.621 323.502 734.097 323.363 734.414 323.224C736.794 321.973 736.635 317.11 738.063 315.025C739.015 313.358 738.063 315.859 739.015 313.219L739.809 311.412C739.967 310.856 739.967 310.439 740.126 309.606C740.602 306.688 741.395 303.63 741.713 300.851C742.506 296.821 742.03 285.983 740.761 282.231C739.809 279.59 738.54 280.424 737.111 277.923C736.794 277.367 736.953 277.784 736.635 277.228L736.159 276.533C733.938 273.476 732.986 273.893 730.289 271.809C727.274 269.585 718.706 270.419 715.057 270.836C713.629 270.975 713.946 270.836 712.836 271.392C711.566 272.226 712.836 271.948 710.932 272.226C708.869 272.642 708.552 273.059 706.965 274.171L705.378 275.144C704.268 275.838 703.95 276.811 702.364 277.228C700.301 277.784 700.142 278.062 698.556 279.035C697.921 279.312 697.445 279.59 696.969 280.146L693.002 284.315C690.622 285.983 688.56 285.983 685.704 289.596L682.689 292.931C680.944 294.459 681.737 292.931 676.343 298.211L674.439 300.295C673.487 301.407 673.645 301.963 672.852 302.797C671.424 304.603 670.948 304.325 670.789 306.965C669.044 307.243 665.236 310.578 664.443 311.968L663.649 313.08C663.491 313.358 663.173 314.052 663.173 314.191C661.428 318.221 660.317 317.943 657.779 320.167L652.86 326.003C652.067 327.948 651.115 328.504 650.004 330.45L648.259 332.534C646.989 334.063 646.831 336.286 645.879 337.537C644.768 339.204 645.403 337.815 643.816 338.926C643.657 343.373 643.816 339.482 642.388 342.539C641.753 344.068 641.912 344.207 640.643 345.457C639.215 346.986 639.849 347.82 637.945 349.626C636.2 351.155 636.517 351.155 636.359 353.934C634.455 354.768 635.407 353.795 634.296 355.601L626.68 367.135C626.522 367.413 626.522 367.413 626.363 367.691C625.094 369.497 624.459 370.053 623.983 372.693C623.666 374.917 622.714 375.195 621.286 376.862C620.81 377.557 620.651 378.113 620.016 378.947L619.699 379.641L619.223 380.058C619.223 380.197 619.223 380.197 619.064 380.336C619.064 380.336 619.064 380.475 618.906 380.614C617.795 382.143 617.319 384.088 615.732 385.478L614.78 386.173C612.718 387.84 613.035 391.453 611.766 393.676C611.766 393.815 611.766 393.815 611.607 393.954C608.751 398.262 611.29 394.232 609.703 397.706L606.054 404.376C605.26 405.627 605.736 406.878 604.467 408.823C602.087 412.158 602.563 416.883 600.5 420.357C597.803 424.664 599.548 424.942 598.755 427.027C598.12 427.861 597.962 427.722 597.644 428.138L596.851 429.25C595.74 430.918 596.375 429.806 596.058 432.168C595.74 434.947 595.582 433.28 594.63 434.947C593.519 436.615 592.726 442.173 592.408 444.258C592.091 446.898 591.298 447.176 591.139 450.928L589.552 451.623C589.394 453.568 589.235 454.68 588.918 456.347C587.807 462.462 588.6 458.571 587.49 462.323C586.855 464.129 586.855 464.685 585.903 465.797L585.268 466.769C584.951 467.186 584.951 467.325 584.792 467.464C584.158 468.437 583.365 469.687 582.254 470.382C580.826 471.216 581.619 470.243 580.509 471.355C580.033 471.911 580.191 472.189 579.557 472.744C578.446 474.134 577.811 473.856 576.542 475.246L574.955 477.469C574.955 477.469 574.955 477.608 574.797 477.747L573.051 480.109C572.893 480.248 572.893 480.248 572.734 480.387C572.734 480.387 572.734 480.526 572.575 480.526L568.767 483.028C567.498 483.722 567.498 485.39 566.705 486.363C565.277 488.03 565.277 488.308 563.214 489.559L560.834 491.226C559.247 492.199 560.993 491.365 559.089 492.199C556.709 493.172 557.026 494.561 555.281 496.09L548.775 502.899C546.871 504.566 547.506 505.678 543.698 505.678C541.635 505.817 540.525 505.678 538.779 505.261C536.558 504.705 537.828 505.122 537.034 504.288C533.861 500.814 535.448 497.618 534.178 494.422L533.226 492.755C532.75 491.643 532.909 490.67 532.274 489.698C531.798 489.003 530.846 488.725 530.37 487.891C529.577 486.363 530.529 483.861 529.577 482.194C528.784 480.943 528.625 481.777 528.149 479.97C527.514 477.469 527.197 474.134 526.245 471.772C525.134 469.132 524.658 464.546 522.278 462.6L520.692 461.906C520.692 459.96 520.374 458.015 519.422 456.764L518.47 455.791C517.201 454.541 517.677 452.734 516.09 451.206L515.138 450.65C514.504 450.233 515.138 450.233 513.869 449.816C513.71 447.454 513.393 445.092 511.806 443.285L510.537 441.201C509.744 439.672 509.744 440.645 508.95 439.255C506.729 434.947 506.253 437.588 505.618 432.168C504.984 426.888 500.858 427.999 499.272 424.248C499.113 423.692 499.272 423.831 498.954 423.136L497.844 420.357C497.368 419.245 496.416 418.828 495.305 418.133C493.56 417.022 493.877 416.605 493.56 414.52C493.084 412.436 493.56 413.687 492.766 412.853L489.752 409.24C489.276 408.823 489.593 409.24 489.117 408.684C487.531 406.878 488.641 406.044 486.261 403.82L483.405 401.736C480.391 400.069 481.184 398.54 478.963 395.9C477.376 393.954 475.313 391.592 473.251 390.063C471.981 389.091 471.347 387.84 470.395 387.006L468.173 385.2C467.38 384.366 468.173 384.505 466.745 383.532C465.159 382.421 465.159 381.865 463.572 380.475L459.129 376.306C458.019 375.473 457.86 374.361 456.432 373.11C456.432 373.11 456.432 372.971 456.273 372.971L453.417 371.026C451.831 370.192 451.196 368.664 450.085 367.691L448.975 365.884C448.657 365.329 448.816 365.884 448.816 365.19ZM539.573 351.294L539.255 354.907C536.558 356.296 536.876 355.323 536.082 358.52C535.765 359.909 536.4 358.797 535.13 359.77C532.909 361.577 534.02 364.217 532.75 366.579C532.592 366.718 532.592 366.718 532.592 366.857C532.433 366.857 532.274 367.135 532.274 367.274C531.164 368.525 529.736 368.942 529.736 369.081L527.514 371.443C526.086 373.388 526.086 397.15 526.562 400.346C526.721 402.014 526.88 404.098 527.038 406.183C527.356 409.518 527.673 408.962 531.164 409.24C531.164 410.491 531.957 411.602 532.433 412.714C533.068 413.826 534.02 414.242 534.972 415.354C537.034 417.439 538.304 418.411 542.429 418.689C543.539 420.496 541.953 418.272 542.429 419.662C545.443 419.801 550.045 420.496 552.742 419.106L561.151 414.242C563.373 412.714 564.325 410.213 566.387 408.128C567.815 406.739 567.339 405.21 568.767 403.682L571.465 400.069C572.099 398.123 572.258 395.761 573.369 392.982L575.431 387.145C576.066 387.701 575.907 386.312 576.066 388.396C576.859 380.197 577.494 379.78 576.859 370.331C576.701 370.331 577.494 369.219 576.859 370.609L576.542 371.165C576.542 371.304 576.383 371.443 576.383 371.443C576.225 370.331 576.225 371.026 576.066 370.192L574.955 366.44C574.797 366.301 574.797 366.301 574.797 366.162L574.162 362.688C573.845 361.438 574.162 362.133 573.686 361.299L572.099 358.659C572.099 358.52 572.099 358.52 571.941 358.381C571.941 358.242 571.941 358.242 571.782 358.103L570.83 356.435C569.561 354.768 569.719 352.266 568.291 351.016C566.863 349.904 566.705 350.043 564.642 349.765C562.103 349.487 563.69 349.209 561.31 348.931C559.247 348.653 555.281 348.653 553.377 348.514C547.665 348.098 545.602 348.931 541.001 350.738L540.366 351.016C540.366 351.016 540.207 351.016 540.049 351.016L539.573 351.294ZM478.804 605.451C478.328 602.95 482.295 601.421 483.405 599.476C484.675 597.391 483.723 598.086 485.627 596.974C486.737 596.419 486.103 596.28 487.372 595.446C488.958 594.473 488.165 596.419 490.704 593.639L490.863 593.501C492.766 591.416 493.401 587.942 496.574 586.275C499.113 584.885 498.002 585.024 499.43 583.356L500.065 582.801C500.065 582.801 500.224 582.801 500.224 582.662C500.382 582.662 500.382 582.523 500.541 582.523C501.81 581.411 503.08 579.743 504.666 578.771L507.522 576.547C508.157 576.13 508.792 575.019 512.758 575.714C513.71 575.853 513.234 575.853 513.869 576.13C517.042 577.798 517.36 582.523 515.932 585.163C514.186 588.637 514.821 593.362 514.186 595.168L513.234 598.781C513.076 600.31 513.393 601.838 512.441 603.228C510.22 606.285 510.696 611.843 509.902 615.595C509.585 616.985 508.95 615.734 508.157 617.402L507.364 621.431C506.253 624.489 506.729 628.24 504.984 632.965C504.666 633.799 504.825 633.799 504.666 634.494L504.032 635.744C504.032 635.883 503.873 635.883 503.873 636.022C502.604 637.412 502.445 638.662 501.81 640.33C501.81 640.469 501.81 640.608 501.81 640.747L497.368 652.142C496.892 652.975 496.098 655.199 495.94 658.117C495.146 658.534 495.305 658.256 494.512 658.951C494.512 658.951 494.353 658.951 494.353 659.089L492.449 661.73C490.545 665.621 492.29 665.899 492.449 667.288C492.766 669.65 491.815 666.593 491.973 669.095C492.132 671.596 492.132 668.539 492.925 670.484C491.021 672.986 492.925 672.708 489.752 674.792C488.641 675.626 488.8 676.459 488.165 677.571L488.006 678.127C487.372 678.683 486.737 678.822 485.944 679.239C485.944 679.795 485.944 680.628 485.944 681.184C485.627 683.408 485.785 681.879 485.151 682.574C484.199 683.963 484.04 685.631 483.564 687.02L483.088 687.854C482.929 687.993 482.929 688.271 482.771 688.549L482.453 689.383C481.343 691.884 479.756 693.552 478.645 695.914C478.328 696.609 478.645 695.914 478.169 696.609C477.059 698.137 477.376 697.998 476.741 699.666C476.741 699.805 476.583 699.944 476.583 699.944L476.107 701.055C475.789 701.75 476.265 701.055 475.631 701.75L474.996 702.445C474.837 702.584 474.837 702.584 474.679 702.723L471.664 706.197C470.712 707.448 470.395 709.254 469.443 710.505C468.808 711.616 468.649 712.311 467.38 713.006C464.841 714.534 466.904 715.507 463.413 718.425C461.985 719.537 463.255 718.425 462.461 719.815C461.351 721.621 460.875 720.649 460.081 721.899C458.812 722.455 458.653 723.845 457.86 724.262C457.701 724.401 457.701 724.401 457.543 724.401L451.196 731.904C451.037 731.904 451.037 732.043 450.879 732.043C450.72 732.599 450.403 733.294 450.244 733.711C449.451 735.1 449.292 734.128 447.388 735.795L443.104 739.547L442.945 739.686C442.152 740.659 441.518 741.354 441.359 742.604C439.614 742.743 438.186 743.577 437.075 744.272L431.998 747.329C430.411 748.302 433.108 747.19 431.046 747.746C430.252 748.024 428.507 748.997 426.762 748.997C424.699 748.858 422.795 748.024 420.732 747.746C420.415 746.217 420.574 746.773 419.78 745.661C415.972 741.215 417.876 737.602 416.29 733.016C415.496 731.21 415.814 729.403 415.814 727.18C415.814 723.706 418.035 706.336 418.67 704.668C420.098 701.611 420.098 700.361 420.732 697.165C421.208 695.219 421.208 696.053 421.684 694.802C422.002 694.107 422.954 688.827 425.175 684.936L426.286 682.991C426.92 682.157 426.92 681.879 427.238 680.489C428.031 677.154 428.824 675.487 430.411 672.708C431.204 671.318 430.57 672.569 431.204 671.596C433.267 669.095 432.95 666.038 435.33 664.092L435.488 663.953L436.123 663.119C437.868 660.201 439.455 658.673 442.311 654.226L447.705 646.583C447.864 646.444 447.864 646.444 447.864 646.305L452.465 640.191C452.624 640.052 453.259 639.357 453.259 639.357C454.528 638.107 455.004 636.439 455.797 635.049C456.115 634.633 456.115 634.633 456.432 634.077L457.701 631.853C458.336 630.464 459.288 630.881 461.192 628.657C461.509 628.379 461.668 628.24 462.144 627.963L464.207 625.044C465.159 623.099 465 622.265 466.904 620.876L470.077 617.402C471.347 614.9 471.188 615.456 473.409 613.928C474.044 613.511 477.852 608.647 478.328 607.258C478.804 606.007 478.487 606.841 478.804 605.451ZM636.042 407.711C642.864 407.711 641.277 407.989 642.071 406.6C642.705 405.349 643.34 405.071 644.609 404.237C648.576 402.014 647.783 400.069 650.797 398.262C651.273 397.845 650.956 398.123 651.432 397.706C652.067 397.15 651.432 397.567 651.908 397.289C651.908 397.289 651.908 397.15 652.067 397.011L655.24 393.26C655.24 393.121 655.557 392.982 655.557 392.843L658.572 389.924C658.572 389.924 658.731 389.786 658.731 389.647C659.365 388.813 660.159 387.423 661.111 386.728C662.38 385.756 662.856 384.644 663.808 383.532L663.967 383.393C664.125 383.254 664.284 382.976 664.284 382.976L666.188 381.587C667.299 380.614 667.457 378.947 668.568 377.835C668.568 377.835 668.885 377.557 669.044 377.557C669.044 377.418 669.203 377.418 669.203 377.418C669.203 377.279 669.361 377.279 669.361 377.279C669.52 377.14 669.679 377.14 669.679 377.001C671.424 375.89 671.583 374.222 672.535 373.666C673.645 372.971 673.011 373.527 673.963 373.11L675.549 371.86C676.343 371.304 676.977 371.165 677.612 370.47L680.944 364.912L681.103 364.773C683.007 362.549 684.117 363.105 684.593 361.299C685.228 359.631 685.069 358.381 686.021 356.991C686.18 356.713 686.656 356.435 686.656 356.435L687.449 355.323C688.718 354.073 688.877 354.49 689.67 352.544C690.305 351.155 690.94 351.016 691.892 350.043L692.368 349.626C693.32 348.375 693.161 347.403 693.796 346.152C694.43 344.624 694.748 345.04 696.017 344.068C697.128 343.095 698.08 341.428 698.714 340.177C699.349 338.926 699.508 338.231 701.094 337.815C701.253 336.703 701.094 336.564 701.57 335.73C702.998 333.785 701.57 336.008 702.681 335.174L704.744 330.867L704.902 330.45C705.22 330.172 705.22 330.033 705.537 329.755L708.552 326.837C708.552 324.613 708.869 320.167 709.98 318.638L712.677 312.802C713.47 310.439 713.47 307.938 713.312 305.576C713.153 303.353 713.47 304.325 712.201 303.353L711.249 302.658C707.282 300.434 706.33 303.491 705.061 304.325L703.633 305.02L703.474 305.159L702.046 306.132C702.046 306.271 701.729 306.41 701.57 306.549C699.825 307.66 700.142 308.355 698.714 309.884L697.128 311.412C693.637 315.025 692.685 314.33 691.098 317.526C690.622 318.638 690.464 319.611 689.512 320.445L685.862 323.502C685.862 323.502 685.545 323.78 685.387 323.919L684.117 325.725L683.958 325.864C683.958 326.003 683.8 326.003 683.8 326.142L683.641 326.281L676.343 335.591C673.487 339.76 672.217 338.509 668.885 344.207C666.188 349.209 669.203 345.457 665.553 349.209C664.284 350.321 664.284 352.544 663.332 354.073L662.697 354.768C662.697 354.907 662.539 354.907 662.539 355.046C659.683 357.269 661.428 356.852 660 359.214L659.683 359.631C659.683 359.631 659.683 359.77 659.524 359.77C658.413 361.16 657.779 360.882 656.827 362.549C655.557 365.19 654.923 364.356 652.86 368.664C652.225 369.914 652.225 369.358 651.591 370.887C649.528 376.584 651.273 372.416 648.417 375.612L646.513 378.808C646.037 380.336 645.879 380.892 644.768 382.004L642.705 384.922L641.595 390.341C641.595 390.758 641.436 391.036 641.277 391.314L640.96 391.731C635.724 397.289 638.421 396.595 636.676 401.736C635.724 404.793 635.724 401.736 636.042 407.711Z" fill="white"/>
</g>
<defs>
<filter id="filter0_d_2114_475" x="268" y="270" width="544" height="544" filterUnits="userSpaceOnUse" color-interpolation-filters="sRGB">
<feFlood flood-opacity="0" result="BackgroundImageFix"/>
<feColorMatrix in="SourceAlpha" type="matrix" values="0 0 0 0 0 0 0 0 0 0 0 0 0 0 0 0 0 0 127 0" result="hardAlpha"/>
<feOffset dy="2"/>
<feGaussianBlur stdDeviation="1"/>
<feComposite in2="hardAlpha" operator="out"/>
<feColorMatrix type="matrix" values="0 0 0 0 0 0 0 0 0 0 0 0 0 0 0 0 0 0 0.14902 0"/>
<feBlend mode="normal" in2="BackgroundImageFix" result="effect1_dropShadow_2114_475"/>
<feBlend mode="normal" in="SourceGraphic" in2="effect1_dropShadow_2114_475" result="shape"/>
</filter>
</defs>
</svg>